<svg xmlns="http://www.w3.org/2000/svg" xmlns:xlink="http://www.w3.org/1999/xlink" width="200" zoomAndPan="magnify" viewBox="0 0 150 74.999997" height="100" preserveAspectRatio="xMidYMid meet" version="1.0"><defs><clipPath id="20eacd0b44"><path d="M 28.125 0 L 121.875 0 L 121.875 75 L 28.125 75 Z M 28.125 0 " clip-rule="nonzero"/></clipPath></defs><g clip-path="url(#20eacd0b44)"><path fill="#f41823" d="M 82.691406 0.0703125 L 83.910156 0.433594 L 119.066406 10.566406 L 121.875 11.421875 L 121.875 17.402344 L 119.433594 18.378906 L 86.597656 31.316406 L 85.863281 31.5625 L 64.136719 31.5625 L 63.527344 31.316406 L 42.773438 23.503906 L 42.652344 23.503906 C 39.210938 22.128906 35.9375 24.375 35.9375 28.023438 L 35.9375 28.386719 C 35.9375 30.640625 37.074219 32.347656 39.234375 33.394531 C 39.320312 33.4375 39.386719 33.476562 39.476562 33.515625 L 75 46.941406 L 104.417969 35.710938 C 112.695312 32.402344 121.875 38.699219 121.875 47.554688 L 121.875 47.917969 C 121.875 53.386719 118.386719 58.042969 113.695312 60.125 L 113.574219 60.125 L 113.453125 60.25 L 76.34375 74.285156 L 75 74.773438 L 73.65625 74.285156 L 49 64.886719 L 49.121094 64.644531 L 28.125 56.953125 L 28.125 48.40625 L 51.808594 57.5625 L 51.808594 57.683594 L 51.929688 57.683594 L 75 66.472656 L 110.523438 53.046875 L 110.765625 52.925781 C 112.925781 51.878906 114.0625 50.171875 114.0625 47.917969 L 114.0625 47.554688 C 114.0625 43.90625 110.789062 41.660156 107.347656 43.035156 L 107.226562 43.035156 L 76.34375 54.753906 L 75 55.242188 L 73.65625 54.753906 L 36.546875 40.71875 L 36.425781 40.59375 L 36.304688 40.59375 C 31.613281 38.511719 28.125 33.855469 28.125 28.386719 L 28.125 28.023438 C 28.125 21.871094 32.648438 17.25 38.136719 15.9375 L 38.136719 15.816406 L 39.355469 15.449219 L 81.46875 0.558594 Z M 82.8125 8.367188 L 52.785156 18.867188 L 65.601562 23.75 L 65.722656 23.75 L 75 17.523438 L 84.277344 23.75 L 106.371094 15.082031 Z M 82.8125 8.367188 " fill-opacity="1" fill-rule="nonzero"/></g></svg>