<svg xmlns="http://www.w3.org/2000/svg" xmlns:xlink="http://www.w3.org/1999/xlink" width="500" zoomAndPan="magnify" viewBox="0 0 375 374.999991" height="500" preserveAspectRatio="xMidYMid meet" version="1.0"><defs><g/><clipPath id="3e3cdc30ef"><path d="M 135.65625 153.105469 L 203.066406 153.105469 L 203.066406 220.515625 L 135.65625 220.515625 Z M 135.65625 153.105469 " clip-rule="nonzero"/></clipPath><clipPath id="5b0ecbcd44"><path d="M 169.359375 153.105469 C 150.746094 153.105469 135.65625 168.195312 135.65625 186.8125 C 135.65625 205.425781 150.746094 220.515625 169.359375 220.515625 C 187.976562 220.515625 203.066406 205.425781 203.066406 186.8125 C 203.066406 168.195312 187.976562 153.105469 169.359375 153.105469 Z M 169.359375 153.105469 " clip-rule="nonzero"/></clipPath><clipPath id="0e6ba1c727"><path d="M 137.242188 154.691406 L 201.742188 154.691406 L 201.742188 219.191406 L 137.242188 219.191406 Z M 137.242188 154.691406 " clip-rule="nonzero"/></clipPath></defs><g fill="#000000" fill-opacity="1"><g transform="translate(21.844044, 220.508147)"><g><path d="M 88.765625 -63.765625 C 96.484375 -63.765625 102.632812 -61.445312 107.21875 -56.8125 C 111.8125 -52.1875 114.109375 -45.207031 114.109375 -35.875 L 114.109375 0 L 92.125 0 L 92.125 -32.296875 C 92.125 -36.691406 91.289062 -39.929688 89.625 -42.015625 C 87.96875 -44.097656 85.640625 -45.140625 82.640625 -45.140625 C 79.316406 -45.140625 76.648438 -43.976562 74.640625 -41.65625 C 72.640625 -39.34375 71.640625 -35.832031 71.640625 -31.125 L 71.640625 0 L 49.65625 0 L 49.65625 -32.296875 C 49.65625 -40.859375 46.488281 -45.140625 40.15625 -45.140625 C 36.757812 -45.140625 34.054688 -43.976562 32.046875 -41.65625 C 30.046875 -39.34375 29.046875 -35.832031 29.046875 -31.125 L 29.046875 0 L 7.0625 0 L 7.0625 -62.734375 L 28 -62.734375 L 28 -56.125 C 30.320312 -58.675781 33.082031 -60.585938 36.28125 -61.859375 C 39.476562 -63.128906 42.96875 -63.765625 46.75 -63.765625 C 51.15625 -63.765625 55.09375 -62.953125 58.5625 -61.328125 C 62.03125 -59.710938 64.847656 -57.25 67.015625 -53.9375 C 69.484375 -57.09375 72.609375 -59.519531 76.390625 -61.21875 C 80.171875 -62.914062 84.296875 -63.765625 88.765625 -63.765625 Z M 88.765625 -63.765625 "/></g></g></g><g fill="#000000" fill-opacity="1"><g transform="translate(130.523276, 220.508147)"><g><path d="M 38.546875 1.046875 C 31.828125 1.046875 25.765625 -0.34375 20.359375 -3.125 C 14.960938 -5.90625 10.738281 -9.765625 7.6875 -14.703125 C 4.644531 -19.640625 3.125 -25.234375 3.125 -31.484375 C 3.125 -37.648438 4.644531 -43.203125 7.6875 -48.140625 C 10.738281 -53.078125 14.945312 -56.914062 20.3125 -59.65625 C 25.675781 -62.394531 31.753906 -63.765625 38.546875 -63.765625 C 45.328125 -63.765625 51.414062 -62.394531 56.8125 -59.65625 C 62.21875 -56.914062 66.425781 -53.097656 69.4375 -48.203125 C 72.445312 -43.304688 73.953125 -37.734375 73.953125 -31.484375 C 73.953125 -25.234375 72.445312 -19.640625 69.4375 -14.703125 C 66.425781 -9.765625 62.21875 -5.90625 56.8125 -3.125 C 51.414062 -0.34375 45.328125 1.046875 38.546875 1.046875 Z M 38.546875 -16.4375 C 42.398438 -16.4375 45.5625 -17.765625 48.03125 -20.421875 C 50.5 -23.085938 51.734375 -26.773438 51.734375 -31.484375 C 51.734375 -36.109375 50.5 -39.734375 48.03125 -42.359375 C 45.5625 -44.984375 42.398438 -46.296875 38.546875 -46.296875 C 34.679688 -46.296875 31.515625 -44.984375 29.046875 -42.359375 C 26.578125 -39.734375 25.34375 -36.109375 25.34375 -31.484375 C 25.34375 -26.773438 26.578125 -23.085938 29.046875 -20.421875 C 31.515625 -17.765625 34.679688 -16.4375 38.546875 -16.4375 Z M 38.546875 -16.4375 "/></g></g></g><g fill="#000000" fill-opacity="1"><g transform="translate(195.337287, 220.508147)"><g><path d="M 73.140625 -62.734375 L 47.21875 0 L 24.53125 0 L -1.265625 -62.734375 L 21.296875 -62.734375 L 36.34375 -24.421875 L 52.203125 -62.734375 Z M 73.140625 -62.734375 "/></g></g></g><g fill="#000000" fill-opacity="1"><g transform="translate(254.82731, 220.508147)"><g><path d="M 7.0625 -62.734375 L 29.046875 -62.734375 L 29.046875 0 L 7.0625 0 Z M 18.0625 -69.671875 C 14.050781 -69.671875 10.8125 -70.789062 8.34375 -73.03125 C 5.875 -75.269531 4.640625 -78.046875 4.640625 -81.359375 C 4.640625 -84.679688 5.875 -87.457031 8.34375 -89.6875 C 10.8125 -91.925781 14.050781 -93.046875 18.0625 -93.046875 C 22.070312 -93.046875 25.3125 -91.984375 27.78125 -89.859375 C 30.25 -87.742188 31.484375 -85.023438 31.484375 -81.703125 C 31.484375 -78.234375 30.25 -75.359375 27.78125 -73.078125 C 25.3125 -70.804688 22.070312 -69.671875 18.0625 -69.671875 Z M 18.0625 -69.671875 "/></g></g></g><g fill="#000000" fill-opacity="1"><g transform="translate(278.785357, 220.508147)"><g><path d="M 71.171875 -31.25 C 71.171875 -31.09375 71.054688 -29.28125 70.828125 -25.8125 L 25.234375 -25.8125 C 26.160156 -22.570312 27.953125 -20.082031 30.609375 -18.34375 C 33.273438 -16.601562 36.613281 -15.734375 40.625 -15.734375 C 43.632812 -15.734375 46.238281 -16.15625 48.4375 -17 C 50.632812 -17.851562 52.851562 -19.242188 55.09375 -21.171875 L 66.65625 -9.140625 C 60.5625 -2.347656 51.648438 1.046875 39.921875 1.046875 C 32.597656 1.046875 26.15625 -0.34375 20.59375 -3.125 C 15.039062 -5.90625 10.738281 -9.765625 7.6875 -14.703125 C 4.644531 -19.640625 3.125 -25.234375 3.125 -31.484375 C 3.125 -37.648438 4.609375 -43.179688 7.578125 -48.078125 C 10.546875 -52.984375 14.65625 -56.820312 19.90625 -59.59375 C 25.15625 -62.375 31.054688 -63.765625 37.609375 -63.765625 C 43.859375 -63.765625 49.53125 -62.472656 54.625 -59.890625 C 59.71875 -57.304688 63.75 -53.5625 66.71875 -48.65625 C 69.6875 -43.757812 71.171875 -37.957031 71.171875 -31.25 Z M 37.734375 -48.140625 C 34.335938 -48.140625 31.5 -47.175781 29.21875 -45.25 C 26.945312 -43.320312 25.503906 -40.695312 24.890625 -37.375 L 50.578125 -37.375 C 49.960938 -40.695312 48.515625 -43.320312 46.234375 -45.25 C 43.960938 -47.175781 41.128906 -48.140625 37.734375 -48.140625 Z M 37.734375 -48.140625 "/></g></g></g><g clip-path="url(#3e3cdc30ef)"><g clip-path="url(#5b0ecbcd44)"><path fill="#ffffff" d="M 135.65625 153.105469 L 203.066406 153.105469 L 203.066406 220.515625 L 135.65625 220.515625 Z M 135.65625 153.105469 " fill-opacity="1" fill-rule="nonzero"/></g></g><g clip-path="url(#0e6ba1c727)"><path fill="#000000" d="M 194.589844 201.4375 C 192.738281 204.644531 189.007812 206.089844 185.589844 205.1875 L 176.214844 214.5625 L 175.199219 213.546875 C 173.746094 215.015625 171.722656 215.925781 169.492188 215.925781 C 165.058594 215.925781 161.457031 212.324219 161.457031 207.894531 C 161.457031 204.511719 163.550781 201.613281 166.511719 200.429688 L 163.578125 197.496094 L 162.378906 198.691406 L 161.363281 199.710938 L 159.378906 197.726562 C 159.269531 200.390625 157.847656 202.945312 155.367188 204.378906 C 151.527344 206.59375 146.609375 205.277344 144.394531 201.4375 C 142.175781 197.59375 143.488281 192.675781 147.332031 190.460938 C 150.648438 188.546875 154.765625 189.261719 157.253906 191.964844 L 180.386719 168.832031 L 182.152344 170.597656 C 182.589844 170.1875 183.078125 169.820312 183.617188 169.507812 C 187.460938 167.292969 192.371094 168.609375 194.589844 172.453125 C 196.8125 176.292969 195.496094 181.210938 191.652344 183.425781 C 191.414062 183.566406 191.171875 183.691406 190.921875 183.800781 L 193.019531 185.902344 L 195.234375 183.6875 L 196.253906 184.707031 L 197.171875 185.621094 L 201.164062 189.613281 L 195.402344 195.375 C 195.925781 197.351562 195.695312 199.527344 194.589844 201.4375 Z M 144.394531 172.453125 C 146.609375 168.609375 151.527344 167.292969 155.367188 169.507812 C 159.210938 171.730469 160.523438 176.640625 158.3125 180.484375 C 156.089844 184.332031 151.179688 185.648438 147.332031 183.425781 C 143.488281 181.210938 142.175781 176.292969 144.394531 172.453125 Z M 169.492188 157.960938 C 173.929688 157.960938 177.527344 161.554688 177.527344 165.992188 C 177.527344 170.429688 173.929688 174.03125 169.492188 174.03125 C 165.058594 174.03125 161.457031 170.429688 161.457031 165.992188 C 161.457031 161.554688 165.058594 157.960938 169.492188 157.960938 Z M 169.492188 154.695312 C 151.683594 154.695312 137.246094 169.132812 137.246094 186.941406 C 137.246094 204.753906 151.683594 219.191406 169.492188 219.191406 C 187.300781 219.191406 201.742188 204.753906 201.742188 186.941406 C 201.742188 169.132812 187.300781 154.695312 169.492188 154.695312 " fill-opacity="1" fill-rule="nonzero"/></g><path fill="#000000" d="M 195.824219 191.671875 L 194.652344 192.847656 C 194.601562 192.898438 194.535156 192.921875 194.464844 192.921875 C 194.394531 192.921875 194.324219 192.894531 194.269531 192.839844 L 194.167969 192.734375 L 192.316406 190.890625 L 192.300781 190.875 C 192.195312 190.765625 192.195312 190.597656 192.296875 190.492188 L 193.472656 189.320312 C 193.527344 189.269531 193.59375 189.242188 193.660156 189.242188 C 193.730469 189.242188 193.800781 189.269531 193.851562 189.324219 L 195.824219 191.289062 C 195.925781 191.398438 195.929688 191.566406 195.824219 191.671875 Z M 192.550781 194.945312 L 191.375 196.121094 C 191.324219 196.175781 191.253906 196.195312 191.1875 196.195312 C 191.121094 196.195312 191.046875 196.167969 190.996094 196.117188 L 189.023438 194.148438 C 188.921875 194.042969 188.921875 193.871094 189.023438 193.769531 L 190.199219 192.597656 C 190.25 192.542969 190.316406 192.515625 190.386719 192.515625 C 190.453125 192.515625 190.523438 192.542969 190.578125 192.597656 L 192.546875 194.566406 C 192.648438 194.671875 192.652344 194.84375 192.550781 194.945312 Z M 189.273438 198.21875 L 188.097656 199.398438 C 188.046875 199.449219 187.980469 199.472656 187.914062 199.472656 C 187.847656 199.472656 187.773438 199.445312 187.71875 199.394531 L 185.75 197.421875 C 185.644531 197.316406 185.644531 197.152344 185.746094 197.046875 L 186.925781 195.871094 C 186.976562 195.820312 187.042969 195.792969 187.109375 195.792969 C 187.175781 195.792969 187.246094 195.820312 187.300781 195.875 L 189.269531 197.84375 C 189.375 197.949219 189.378906 198.117188 189.273438 198.21875 Z M 186 201.496094 L 184.824219 202.671875 C 184.777344 202.722656 184.703125 202.75 184.640625 202.75 C 184.566406 202.75 184.496094 202.71875 184.441406 202.667969 L 182.476562 200.699219 C 182.371094 200.59375 182.371094 200.425781 182.472656 200.320312 L 183.648438 199.148438 C 183.703125 199.09375 183.765625 199.070312 183.832031 199.070312 C 183.902344 199.070312 183.96875 199.097656 184.023438 199.148438 L 185.992188 201.121094 C 186.101562 201.222656 186.101562 201.394531 186 201.496094 Z M 182.726562 204.773438 L 181.546875 205.945312 C 181.496094 206 181.429688 206.023438 181.363281 206.023438 C 181.292969 206.023438 181.222656 206 181.167969 205.945312 L 179.199219 203.972656 C 179.09375 203.867188 179.09375 203.699219 179.199219 203.597656 L 180.375 202.421875 C 180.421875 202.371094 180.488281 202.347656 180.554688 202.347656 C 180.625 202.347656 180.695312 202.371094 180.75 202.425781 L 182.71875 204.394531 C 182.824219 204.5 182.828125 204.671875 182.726562 204.773438 Z M 179.449219 208.050781 L 178.273438 209.226562 C 178.222656 209.273438 178.15625 209.300781 178.085938 209.300781 C 178.015625 209.300781 177.949219 209.273438 177.894531 209.21875 L 175.925781 207.25 C 175.816406 207.148438 175.816406 206.976562 175.921875 206.875 L 177.097656 205.695312 C 177.125 205.667969 177.164062 205.644531 177.203125 205.636719 C 177.230469 205.625 177.257812 205.621094 177.28125 205.621094 C 177.351562 205.621094 177.417969 205.648438 177.472656 205.703125 L 179.441406 207.671875 C 179.550781 207.777344 179.550781 207.945312 179.449219 208.050781 Z M 174.671875 204.601562 L 169.9375 199.871094 L 165.394531 195.328125 C 164.929688 194.863281 164.929688 194.109375 165.394531 193.640625 L 173.644531 185.390625 L 180.015625 179.023438 L 180.242188 178.796875 C 180.476562 178.5625 180.785156 178.445312 181.085938 178.445312 C 181.394531 178.445312 181.699219 178.5625 181.929688 178.796875 L 187.640625 184.503906 L 187.644531 184.503906 L 191.203125 188.066406 C 191.671875 188.535156 191.671875 189.292969 191.203125 189.757812 L 176.355469 204.601562 C 176.125 204.835938 175.816406 204.953125 175.511719 204.953125 C 175.207031 204.953125 174.902344 204.835938 174.671875 204.601562 Z M 164.054688 188.828125 C 163.949219 188.726562 163.949219 188.554688 164.050781 188.449219 L 165.085938 187.417969 L 165.226562 187.273438 C 165.273438 187.222656 165.34375 187.199219 165.410156 187.199219 C 165.480469 187.199219 165.546875 187.226562 165.601562 187.28125 L 167.570312 189.25 C 167.679688 189.355469 167.679688 189.527344 167.578125 189.628906 L 166.765625 190.4375 L 166.402344 190.800781 C 166.351562 190.851562 166.285156 190.878906 166.21875 190.878906 C 166.144531 190.878906 166.078125 190.851562 166.023438 190.796875 Z M 164.300781 192.902344 L 163.125 194.082031 C 163.074219 194.128906 163.007812 194.152344 162.941406 194.152344 C 162.871094 194.152344 162.800781 194.128906 162.746094 194.074219 L 160.777344 192.105469 C 160.671875 192 160.671875 191.828125 160.773438 191.726562 L 161.949219 190.550781 C 162 190.503906 162.066406 190.476562 162.132812 190.476562 C 162.203125 190.476562 162.273438 190.503906 162.328125 190.554688 L 164.296875 192.523438 C 164.402344 192.628906 164.40625 192.800781 164.300781 192.902344 Z M 167.324219 185.175781 L 168.503906 184 C 168.550781 183.949219 168.621094 183.921875 168.6875 183.921875 C 168.753906 183.921875 168.824219 183.949219 168.878906 184.003906 L 170.847656 185.972656 C 170.953125 186.074219 170.957031 186.25 170.851562 186.351562 L 169.675781 187.527344 C 169.628906 187.578125 169.558594 187.601562 169.492188 187.601562 C 169.421875 187.601562 169.351562 187.574219 169.296875 187.523438 L 167.332031 185.550781 C 167.222656 185.449219 167.222656 185.277344 167.324219 185.175781 Z M 170.601562 181.898438 L 171.777344 180.726562 C 171.828125 180.671875 171.894531 180.648438 171.960938 180.648438 C 172.03125 180.648438 172.097656 180.675781 172.15625 180.726562 L 174.121094 182.699219 C 174.230469 182.800781 174.230469 182.972656 174.128906 183.074219 L 172.984375 184.214844 L 172.953125 184.25 C 172.902344 184.304688 172.832031 184.328125 172.769531 184.328125 C 172.699219 184.328125 172.625 184.300781 172.570312 184.242188 L 170.605469 182.277344 C 170.5 182.171875 170.5 182.003906 170.601562 181.898438 Z M 173.875 178.625 L 175.050781 177.449219 C 175.105469 177.398438 175.171875 177.371094 175.238281 177.371094 C 175.308594 177.371094 175.378906 177.398438 175.429688 177.453125 L 177.398438 179.417969 C 177.503906 179.527344 177.507812 179.695312 177.402344 179.800781 L 176.226562 180.976562 C 176.179688 181.027344 176.109375 181.050781 176.042969 181.050781 C 175.972656 181.050781 175.902344 181.023438 175.847656 180.972656 L 173.878906 179.003906 C 173.773438 178.894531 173.773438 178.726562 173.875 178.625 Z M 177.152344 175.347656 L 178.328125 174.171875 C 178.378906 174.121094 178.445312 174.09375 178.515625 174.09375 C 178.585938 174.09375 178.652344 174.121094 178.707031 174.175781 L 180.675781 176.144531 C 180.777344 176.25 180.785156 176.421875 180.679688 176.523438 L 179.671875 177.53125 L 179.507812 177.699219 C 179.453125 177.753906 179.386719 177.777344 179.316406 177.777344 C 179.25 177.777344 179.175781 177.75 179.125 177.695312 L 177.15625 175.726562 C 177.050781 175.621094 177.046875 175.449219 177.152344 175.347656 Z M 198.503906 188.992188 L 197.929688 189.570312 C 197.875 189.621094 197.808594 189.644531 197.738281 189.644531 C 197.671875 189.644531 197.597656 189.621094 197.546875 189.566406 L 195.578125 187.597656 C 195.46875 187.492188 195.476562 187.320312 195.574219 187.21875 L 196.152344 186.640625 L 195.234375 185.722656 L 193.863281 187.09375 C 193.632812 187.328125 193.328125 187.445312 193.019531 187.445312 C 192.714844 187.445312 192.410156 187.328125 192.175781 187.09375 L 182.902344 177.820312 C 182.4375 177.355469 182.4375 176.597656 182.902344 176.136719 L 184.273438 174.761719 L 183.359375 173.84375 L 182.78125 174.425781 C 182.730469 174.472656 182.664062 174.5 182.59375 174.5 C 182.523438 174.5 182.453125 174.472656 182.402344 174.417969 L 180.589844 172.609375 L 180.429688 172.453125 C 180.328125 172.34375 180.328125 172.175781 180.429688 172.070312 L 181.007812 171.496094 L 180.386719 170.871094 L 168.667969 182.589844 L 165.136719 186.117188 L 157.472656 193.78125 L 158.097656 194.402344 L 158.671875 193.828125 C 158.726562 193.777344 158.792969 193.75 158.863281 193.75 C 158.929688 193.75 159 193.777344 159.050781 193.832031 L 161.019531 195.796875 C 161.125 195.90625 161.128906 196.078125 161.027344 196.179688 L 160.449219 196.757812 L 161.363281 197.675781 L 162.734375 196.300781 C 162.96875 196.070312 163.273438 195.953125 163.578125 195.953125 C 163.882812 195.953125 164.191406 196.070312 164.425781 196.300781 L 168.101562 199.980469 L 173.699219 205.578125 C 174.164062 206.042969 174.164062 206.796875 173.699219 207.265625 L 172.324219 208.636719 L 173.242188 209.550781 L 173.820312 208.972656 C 173.871094 208.925781 173.9375 208.898438 174.007812 208.898438 C 174.078125 208.898438 174.144531 208.925781 174.195312 208.980469 L 176.167969 210.945312 C 176.273438 211.050781 176.277344 211.222656 176.171875 211.324219 L 175.59375 211.90625 L 176.214844 212.527344 L 194.855469 193.886719 L 199.125 189.613281 L 198.503906 188.992188 " fill-opacity="1" fill-rule="nonzero"/><g fill="#000000" fill-opacity="1"><g transform="translate(126.37185, 257.272478)"><g><path d="M 2.6875 -20.03125 L 6.40625 -20.03125 L 6.40625 -3.140625 L 16.875 -3.140625 L 16.875 0 L 2.6875 0 Z M 2.6875 -20.03125 "/></g></g></g><g fill="#000000" fill-opacity="1"><g transform="translate(163.74428, 257.272478)"><g><path d="M 2.6875 -20.03125 L 6.40625 -20.03125 L 6.40625 0 L 2.6875 0 Z M 2.6875 -20.03125 "/></g></g></g><g fill="#000000" fill-opacity="1"><g transform="translate(193.107361, 257.272478)"><g><path d="M 8.890625 0.28125 C 7.347656 0.28125 5.859375 0.0625 4.421875 -0.375 C 2.984375 -0.8125 1.84375 -1.390625 1 -2.109375 L 2.28125 -5 C 3.101562 -4.351562 4.109375 -3.820312 5.296875 -3.40625 C 6.492188 -3 7.691406 -2.796875 8.890625 -2.796875 C 10.378906 -2.796875 11.488281 -3.035156 12.21875 -3.515625 C 12.957031 -3.992188 13.328125 -4.625 13.328125 -5.40625 C 13.328125 -5.976562 13.125 -6.445312 12.71875 -6.8125 C 12.3125 -7.1875 11.789062 -7.476562 11.15625 -7.6875 C 10.53125 -7.90625 9.671875 -8.144531 8.578125 -8.40625 C 7.054688 -8.769531 5.820312 -9.132812 4.875 -9.5 C 3.9375 -9.863281 3.128906 -10.429688 2.453125 -11.203125 C 1.773438 -11.972656 1.4375 -13.015625 1.4375 -14.328125 C 1.4375 -15.441406 1.734375 -16.445312 2.328125 -17.34375 C 2.929688 -18.25 3.835938 -18.96875 5.046875 -19.5 C 6.253906 -20.039062 7.738281 -20.3125 9.5 -20.3125 C 10.71875 -20.3125 11.914062 -20.15625 13.09375 -19.84375 C 14.28125 -19.539062 15.304688 -19.101562 16.171875 -18.53125 L 14.984375 -15.65625 C 14.109375 -16.164062 13.191406 -16.550781 12.234375 -16.8125 C 11.285156 -17.082031 10.363281 -17.21875 9.46875 -17.21875 C 8 -17.21875 6.90625 -16.96875 6.1875 -16.46875 C 5.476562 -15.976562 5.125 -15.320312 5.125 -14.5 C 5.125 -13.925781 5.328125 -13.457031 5.734375 -13.09375 C 6.140625 -12.738281 6.65625 -12.457031 7.28125 -12.25 C 7.914062 -12.039062 8.78125 -11.800781 9.875 -11.53125 C 11.363281 -11.1875 12.582031 -10.828125 13.53125 -10.453125 C 14.488281 -10.085938 15.304688 -9.519531 15.984375 -8.75 C 16.660156 -7.988281 17 -6.960938 17 -5.671875 C 17 -4.554688 16.695312 -3.550781 16.09375 -2.65625 C 15.488281 -1.757812 14.578125 -1.046875 13.359375 -0.515625 C 12.140625 0.015625 10.648438 0.28125 8.890625 0.28125 Z M 8.890625 0.28125 "/></g></g></g><g fill="#000000" fill-opacity="1"><g transform="translate(231.337919, 257.272478)"><g><path d="M 6.75 -16.875 L 0.109375 -16.875 L 0.109375 -20.03125 L 17.109375 -20.03125 L 17.109375 -16.875 L 10.46875 -16.875 L 10.46875 0 L 6.75 0 Z M 6.75 -16.875 "/></g></g></g></svg>